<svg width="17" height="17" viewBox="0 0 17 17" fill="none" xmlns="http://www.w3.org/2000/svg">
<path d="M8.5 9.29688C8.9401 9.29688 9.29688 8.9401 9.29688 8.5C9.29688 8.0599 8.9401 7.70312 8.5 7.70312C8.0599 7.70312 7.70312 8.0599 7.70312 8.5C7.70312 8.9401 8.0599 9.29688 8.5 9.29688Z" fill="#808080"/>
<path d="M8.5 5.04688C8.9401 5.04688 9.29688 4.6901 9.29688 4.25C9.29688 3.8099 8.9401 3.45312 8.5 3.45312C8.0599 3.45312 7.70312 3.8099 7.70312 4.25C7.70312 4.6901 8.0599 5.04688 8.5 5.04688Z" fill="#808080"/>
<path d="M8.5 13.5469C8.9401 13.5469 9.29688 13.1901 9.29688 12.75C9.29688 12.3099 8.9401 11.9531 8.5 11.9531C8.0599 11.9531 7.70312 12.3099 7.70312 12.75C7.70312 13.1901 8.0599 13.5469 8.5 13.5469Z" fill="#808080"/>
</svg>
