<svg width="38" height="38" viewBox="0 0 38 38" fill="none" xmlns="http://www.w3.org/2000/svg">
<rect width="38" height="38" rx="5" fill="#F6F6F6"/>
<path d="M15.25 22C17.9424 22 20.125 19.8174 20.125 17.125C20.125 14.4326 17.9424 12.25 15.25 12.25C12.5576 12.25 10.375 14.4326 10.375 17.125C10.375 19.8174 12.5576 22 15.25 22Z" stroke="#C4C4C4" stroke-width="2" stroke-miterlimit="10"/>
<path d="M21.5699 12.4317C22.2405 12.2428 22.9437 12.1998 23.6322 12.3055C24.3208 12.4113 24.9787 12.6633 25.5616 13.0447C26.1445 13.4262 26.639 13.9281 27.0116 14.5167C27.3842 15.1052 27.6264 15.7669 27.7218 16.4569C27.8172 17.147 27.7636 17.8495 27.5646 18.5171C27.3657 19.1847 27.026 19.8019 26.5684 20.3272C26.1108 20.8524 25.5459 21.2735 24.9119 21.5621C24.2779 21.8507 23.5893 22.0001 22.8927 22.0001" stroke="#C4C4C4" stroke-width="2" stroke-linecap="round" stroke-linejoin="round"/>
<path d="M8.49963 25.5059C9.26101 24.4229 10.2718 23.539 11.4466 22.9288C12.6215 22.3186 13.9259 22.0001 15.2497 22C16.5736 21.9999 17.878 22.3184 19.0529 22.9285C20.2278 23.5386 21.2386 24.4225 22.0001 25.5054" stroke="#C4C4C4" stroke-width="2" stroke-linecap="round" stroke-linejoin="round"/>
<path d="M22.8927 22C24.2167 21.999 25.5214 22.3171 26.6964 22.9273C27.8713 23.5375 28.882 24.4218 29.6427 25.5054" stroke="#C4C4C4" stroke-width="2" stroke-linecap="round" stroke-linejoin="round"/>
</svg>
