<svg width="40" height="40" viewBox="0 0 40 40" fill="none" xmlns="http://www.w3.org/2000/svg">
<circle cx="20" cy="20" r="20" fill="#F6F6F6"/>
<path d="M20 27.5C24.1421 27.5 27.5 24.1421 27.5 20C27.5 15.8579 24.1421 12.5 20 12.5C15.8579 12.5 12.5 15.8579 12.5 20C12.5 24.1421 15.8579 27.5 20 27.5Z" stroke="#00A650" stroke-width="2" stroke-miterlimit="10"/>
<path d="M20 22.5C21.7259 22.5 23.125 21.1009 23.125 19.375C23.125 17.6491 21.7259 16.25 20 16.25C18.2741 16.25 16.875 17.6491 16.875 19.375C16.875 21.1009 18.2741 22.5 20 22.5Z" stroke="#00A650" stroke-width="2" stroke-miterlimit="10"/>
<path d="M14.9844 25.5761C15.4552 24.6505 16.1729 23.8732 17.0581 23.3303C17.9434 22.7874 18.9616 22.5 20.0001 22.5C21.0385 22.5 22.0567 22.7874 22.942 23.3303C23.8272 23.8732 24.545 24.6505 25.0158 25.5761" stroke="#00A650" stroke-width="2" stroke-linecap="round" stroke-linejoin="round"/>
</svg>
