<svg width="70" height="70" viewBox="0 0 70 70" fill="none" xmlns="http://www.w3.org/2000/svg">
<circle cx="35" cy="35" r="35" fill="#E6FFF2"/>
<path d="M24.9999 44C24.9999 44 29.9999 43 30.9999 40C30.9999 40 22.9999 37 24.9999 26C24.9999 26 28.9999 31 34.9999 32V30.0004C35.0001 28.8516 35.3957 27.7378 36.1203 26.8464C36.845 25.955 37.8544 25.3402 38.979 25.1055C40.1036 24.8708 41.2747 25.0304 42.2954 25.5575C43.3161 26.0846 44.1242 26.9471 44.5839 28L48.9999 28L44.9999 32C44.9999 39 39.9999 46 30.9999 46C26.9999 46 24.9999 44 24.9999 44Z" stroke="#00A650" stroke-width="2" stroke-linecap="round" stroke-linejoin="round"/>
</svg>
