<svg width="48" height="48" viewBox="0 0 48 48" fill="none" xmlns="http://www.w3.org/2000/svg">
<circle cx="24" cy="24" r="20.4394" fill="white" fill-opacity="0.3"/>
<path d="M27.9449 44.0551C24.6468 44.7039 21.2396 44.5292 18.0252 43.5467C14.8107 42.5641 11.8882 40.8039 9.51644 38.4221C7.14472 36.0402 5.39701 33.1102 4.42813 29.8916C3.45926 26.673 3.29911 23.2651 3.96188 19.9698C4.62465 16.6745 6.08988 13.5935 8.22779 10.9997C10.3657 8.40598 13.1103 6.3795 16.2184 5.09981C19.3266 3.82011 22.7024 3.3267 26.0468 3.66329C29.3912 3.99987 32.6009 5.15606 35.3918 7.02944" stroke="white" stroke-width="3" stroke-linecap="round" stroke-linejoin="round"/>
<path d="M31.9959 23.4549L20.5006 16.4298C20.4038 16.3706 20.293 16.3383 20.1795 16.3362C20.066 16.334 19.9541 16.3622 19.8551 16.4177C19.7561 16.4732 19.6737 16.5541 19.6164 16.652C19.559 16.7499 19.5288 16.8613 19.5288 16.9748V31.0251C19.5288 31.1386 19.559 31.25 19.6164 31.3479C19.6737 31.4458 19.7561 31.5267 19.8551 31.5822C19.9541 31.6377 20.066 31.6658 20.1795 31.6637C20.293 31.6616 20.4038 31.6293 20.5006 31.5701L31.9959 24.545C32.0893 24.4879 32.1664 24.4078 32.22 24.3124C32.2735 24.2169 32.3016 24.1094 32.3016 23.9999C32.3016 23.8905 32.2735 23.7829 32.22 23.6875C32.1664 23.5921 32.0893 23.512 31.9959 23.4549Z" stroke="white" stroke-width="2" stroke-linecap="round" stroke-linejoin="round"/>
</svg>
