<svg width="70" height="70" viewBox="0 0 70 70" fill="none" xmlns="http://www.w3.org/2000/svg">
<circle cx="35" cy="35" r="35" fill="#E6FFF2"/>
<path d="M39 35L33 31V39L39 35Z" stroke="#00A650" stroke-width="2" stroke-linecap="round" stroke-linejoin="round"/>
<path d="M22 35C22 38.7194 22.3843 40.9017 22.6764 42.0233C22.7545 42.3296 22.9044 42.6129 23.1138 42.8497C23.3232 43.0866 23.586 43.2701 23.8805 43.3851C28.0651 44.9932 35 44.949 35 44.949C35 44.949 41.9348 44.9932 46.1195 43.3851C46.4139 43.2701 46.6767 43.0866 46.8861 42.8498C47.0955 42.6129 47.2455 42.3296 47.3236 42.0233C47.6157 40.9017 48 38.7194 48 35C48 31.2805 47.6157 29.0982 47.3236 27.9766C47.2455 27.6703 47.0956 27.387 46.8862 27.1502C46.6768 26.9134 46.414 26.7298 46.1195 26.6148C41.9349 25.0067 35 25.0509 35 25.0509C35 25.0509 28.0652 25.0067 23.8805 26.6148C23.5861 26.7298 23.3233 26.9133 23.1139 27.1502C22.9045 27.387 22.7545 27.6703 22.6764 27.9766C22.3843 29.0982 22 31.2805 22 35Z" stroke="#00A650" stroke-width="2" stroke-linecap="round" stroke-linejoin="round"/>
</svg>
