<svg width="68" height="68" viewBox="0 0 68 68" fill="none" xmlns="http://www.w3.org/2000/svg">
<circle cx="34" cy="34" r="34" fill="#F6F6F6"/>
<path d="M34 44.625C39.868 44.625 44.625 39.868 44.625 34C44.625 28.132 39.868 23.375 34 23.375C28.132 23.375 23.375 28.132 23.375 34C23.375 39.868 28.132 44.625 34 44.625Z" stroke="#00A650" stroke-width="2" stroke-miterlimit="10"/>
<path d="M33.9998 37.5417C36.4448 37.5417 38.4269 35.5596 38.4269 33.1146C38.4269 30.6696 36.4448 28.6875 33.9998 28.6875C31.5548 28.6875 29.5728 30.6696 29.5728 33.1146C29.5728 35.5596 31.5548 37.5417 33.9998 37.5417Z" stroke="#00A650" stroke-width="2" stroke-miterlimit="10"/>
<path d="M26.8943 41.8998C27.5612 40.5885 28.578 39.4874 29.8321 38.7182C31.0862 37.9491 32.5287 37.542 33.9998 37.542C35.471 37.542 36.9135 37.9491 38.1676 38.7182C39.4217 39.4873 40.4385 40.5885 41.1054 41.8998" stroke="#00A650" stroke-width="2" stroke-linecap="round" stroke-linejoin="round"/>
</svg>
