<svg width="102" height="102" viewBox="0 0 102 102" fill="none" xmlns="http://www.w3.org/2000/svg">
<circle cx="51" cy="51" r="51" fill="#03C05E"/>
<path d="M69.0781 29.4062H47.2812C46.3492 29.4074 45.4556 29.7781 44.7966 30.4372C44.1375 31.0963 43.7667 31.9898 43.7656 32.9219V35.7639C43.9977 35.7498 44.2297 35.7344 44.4688 35.7344C44.7078 35.7344 44.9398 35.7498 45.1719 35.7639V32.9219C45.1719 32.3624 45.3941 31.8259 45.7897 31.4303C46.1853 31.0347 46.7218 30.8125 47.2812 30.8125H69.0781C69.6376 30.8125 70.1741 31.0347 70.5697 31.4303C70.9653 31.8259 71.1875 32.3624 71.1875 32.9219V39.25C71.1875 39.8094 70.9653 40.346 70.5697 40.7416C70.1741 41.1371 69.6376 41.3594 69.0781 41.3594H63.4531C63.3046 41.3593 63.1599 41.4064 63.0397 41.4937L56.8705 45.9803L57.807 42.2334C57.833 42.1297 57.835 42.0215 57.8129 41.9169C57.7907 41.8123 57.7451 41.7142 57.6793 41.6299C57.6135 41.5457 57.5294 41.4775 57.4334 41.4306C57.3374 41.3837 57.2319 41.3594 57.125 41.3594H53.0588C53.2223 41.8174 53.3493 42.2876 53.4385 42.7656H56.2243L55.0367 47.5166C55.0016 47.6567 55.0105 47.8042 55.0621 47.939C55.1137 48.0738 55.2056 48.1895 55.3253 48.2703C55.4449 48.3511 55.5866 48.3931 55.7309 48.3906C55.8753 48.3881 56.0154 48.3412 56.1322 48.2563L63.6816 42.7656H69.0781C70.0102 42.7645 70.9037 42.3938 71.5628 41.7347C72.2219 41.0756 72.5926 40.1821 72.5938 39.25V32.9219C72.5926 31.9898 72.2219 31.0963 71.5628 30.4372C70.9037 29.7781 70.0102 29.4074 69.0781 29.4062Z" fill="#E6FFF2"/>
<path d="M54.5516 58.4109C52.9624 57.9608 51.4386 57.3059 50.0185 56.4625L48.6875 55.1308V53.47C50.9191 51.0915 52.1741 47.9605 52.2031 44.6992C52.2031 40.1078 49.1677 37.1406 44.4688 37.1406C39.7698 37.1406 36.7344 40.1078 36.7344 44.6992C36.7634 47.9605 38.0184 51.0915 40.25 53.47V55.1308L38.919 56.4625C37.4989 57.3059 35.9751 57.9608 34.3859 58.4109C32.0431 59.1484 30.4062 61.7036 30.4062 64.6237V70.8906C30.4062 71.0771 30.4803 71.2559 30.6122 71.3878C30.7441 71.5197 30.9229 71.5938 31.1094 71.5938H57.8281C58.0146 71.5938 58.1934 71.5197 58.3253 71.3878C58.4572 71.2559 58.5312 71.0771 58.5312 70.8906V64.6237C58.5312 61.7036 56.8944 59.1484 54.5516 58.4109ZM41.0621 56.3071L43.3353 57.6712L41.7969 59.2096L40.4335 56.9371L41.0621 56.3071ZM44.3816 61.75H44.5559L45.6809 70.1875H43.2566L44.3816 61.75ZM44.6959 60.3438H44.2416L43.7867 59.2075L44.4688 58.5255L45.1508 59.2075L44.6959 60.3438ZM45.6022 57.6719L47.8754 56.3078L48.5082 56.9406L47.1406 59.2096L45.6022 57.6719ZM44.4688 38.5469C48.4316 38.5469 50.7969 40.8468 50.7969 44.6992C50.7969 44.7534 50.7913 44.8096 50.7898 44.8637C49.9711 44.7118 49.2142 44.3252 48.6111 43.751C48.008 43.1768 47.5849 42.4397 47.393 41.6294C47.3679 41.478 47.2938 41.339 47.1822 41.2336C47.0706 41.1282 46.9276 41.0622 46.775 41.0458C46.6224 41.0293 46.4686 41.0631 46.3371 41.1422C46.2056 41.2213 46.1035 41.3413 46.0466 41.4838C45.3786 43.153 41.0741 44.7027 38.1716 45.396C38.1554 45.1612 38.1434 44.9277 38.1434 44.6971C38.1406 40.8468 40.5059 38.5469 44.4688 38.5469ZM38.3614 46.7973C39.8851 46.4387 44.4259 45.2378 46.4867 43.2325C46.9071 44.024 47.5029 44.7089 48.2287 45.2347C48.9544 45.7606 49.7908 46.1135 50.6738 46.2665C50.0987 50.083 47.5477 54.0156 44.4688 54.0156C41.5325 54.0156 39.0821 50.4388 38.3614 46.7973ZM44.4688 55.4219C45.4663 55.4065 46.44 55.1144 47.2812 54.5781V55.0232L44.4688 56.7107L41.6562 55.0232V54.5781C42.4975 55.1144 43.4712 55.4065 44.4688 55.4219ZM31.8125 64.6237C31.8125 62.3111 33.0444 60.3079 34.8092 59.7517C36.3856 59.2887 37.9042 58.648 39.3359 57.842L41.0544 60.7059C41.1094 60.7974 41.1845 60.8752 41.2741 60.9333C41.3637 60.9915 41.4653 61.0284 41.5713 61.0415C41.6773 61.0545 41.7849 61.0432 41.8858 61.0084C41.9868 60.9737 42.0785 60.9164 42.1541 60.8409L42.706 60.2889L43.0449 61.1327L41.837 70.1875H36.7344V65.9688H35.3281V70.1875H31.8125V64.6237ZM57.125 70.1875H53.6094V65.9688H52.2031V70.1875H47.1005L45.8933 61.1355L46.2322 60.2917L46.7841 60.8437C46.8597 60.9192 46.9514 60.9765 47.0524 61.0112C47.1533 61.046 47.2609 61.0573 47.3669 61.0443C47.4729 61.0313 47.5745 60.9943 47.6641 60.9361C47.7537 60.878 47.8288 60.8002 47.8838 60.7087L49.6016 57.842C51.033 58.6481 52.5514 59.2888 54.1276 59.7517C55.8931 60.3079 57.125 62.3125 57.125 64.6237V70.1875Z" fill="#E6FFF2"/>
</svg>
