<svg width="57" height="58" viewBox="0 0 57 58" fill="none" xmlns="http://www.w3.org/2000/svg">
<circle cx="28.1807" cy="29" r="24" fill="#F6821F" fill-opacity="0.3"/>
<path d="M32.8127 52.5488C28.9401 53.3105 24.9394 53.1054 21.165 51.9517C17.3906 50.798 13.9589 48.7312 11.174 45.9344C8.38916 43.1377 6.337 39.6972 5.19934 35.9179C4.06169 32.1386 3.87364 28.1371 4.65187 24.2677C5.43009 20.3984 7.15057 16.7807 9.6609 13.7351C12.1712 10.6895 15.3939 8.31002 19.0435 6.80741C22.6931 5.30479 26.657 4.72543 30.5839 5.12065C34.5109 5.51586 38.2798 6.87346 41.5568 9.07318" stroke="#F6821F" stroke-width="3" stroke-linecap="round" stroke-linejoin="round"/>
<path d="M37.5696 28.3601L24.0718 20.1111C23.9581 20.0417 23.8279 20.0037 23.6947 20.0012C23.5615 19.9987 23.43 20.0318 23.3138 20.0969C23.1976 20.1621 23.1008 20.2571 23.0335 20.3721C22.9662 20.487 22.9307 20.6179 22.9307 20.7511V37.249C22.9307 37.3822 22.9662 37.513 23.0335 37.628C23.1008 37.743 23.1976 37.8379 23.3138 37.9031C23.43 37.9683 23.5615 38.0013 23.6947 37.9988C23.8279 37.9963 23.9581 37.9584 24.0718 37.8889L37.5696 29.64C37.6792 29.573 37.7698 29.479 37.8326 29.3669C37.8955 29.2548 37.9285 29.1285 37.9285 29C37.9285 28.8716 37.8955 28.7452 37.8326 28.6332C37.7698 28.5211 37.6792 28.4271 37.5696 28.3601Z" stroke="#F6821F" stroke-width="2" stroke-linecap="round" stroke-linejoin="round"/>
</svg>
