<svg width="102" height="102" viewBox="0 0 102 102" fill="none" xmlns="http://www.w3.org/2000/svg">
<circle cx="51" cy="51" r="51" fill="#E6FFF2"/>
<g clip-path="url(#clip0_84:16880)">
<path d="M70.8858 65.6337H69.9001V62.2814C69.9001 61.7925 69.5038 61.3962 69.015 61.3962H62.8279C62.3391 61.3962 61.9429 61.7925 61.9429 62.2814C61.9429 62.7702 62.3392 63.1665 62.8279 63.1665H68.1298V65.6337H67.1244C66.1329 65.6337 65.3261 66.4405 65.3261 67.432V71.1942C65.3261 72.1845 66.1329 72.9901 67.1244 72.9901H70.8858C71.8761 72.9901 72.6816 72.1845 72.6816 71.1942V67.432C72.6816 66.4405 71.8761 65.6337 70.8858 65.6337ZM70.9112 71.1942C70.9112 71.2054 70.897 71.2198 70.8858 71.2198H67.1244C67.1093 71.2198 67.0965 71.204 67.0965 71.1942V67.432C67.0965 67.4181 67.1105 67.404 67.1244 67.404H68.8895C68.9306 67.4099 68.9723 67.4139 69.015 67.4139C69.0577 67.4139 69.0994 67.4099 69.1405 67.404H70.8858C70.8956 67.404 70.9112 67.4168 70.9112 67.432V71.1942Z" fill="#00A650"/>
<path d="M40.2017 61.3962H34.0172C33.5283 61.3962 33.1321 61.7925 33.1321 62.2814V65.6436H32.1141C31.1239 65.6436 30.3184 66.4503 30.3184 67.442V71.2042C30.3184 72.1944 31.1239 72.9999 32.1141 72.9999H35.8756C36.8671 72.9999 37.6738 72.1944 37.6738 71.2041V67.4419C37.6738 66.4503 36.8671 65.6436 35.8756 65.6436H34.9024V63.1664H40.2017C40.6906 63.1664 41.0868 62.7701 41.0868 62.2813C41.0868 61.7924 40.6906 61.3962 40.2017 61.3962ZM35.8756 67.4138C35.8894 67.4138 35.9035 67.428 35.9035 67.4419V71.2041C35.9035 71.214 35.8906 71.2296 35.8756 71.2296H32.1141C32.103 71.2296 32.0887 71.2153 32.0887 71.2041V67.4419C32.0887 67.4267 32.1044 67.4138 32.1141 67.4138H35.8756Z" fill="#00A650"/>
<path d="M43.7246 61.3962H43.7072C43.2183 61.3962 42.822 61.7925 42.822 62.2814C42.822 62.7702 43.2184 63.1665 43.7072 63.1665H43.7246C44.2134 63.1665 44.6097 62.7702 44.6097 62.2814C44.6097 61.7925 44.2134 61.3962 43.7246 61.3962Z" fill="#00A650"/>
<path d="M55.82 61.3963H52.4014V57.4085C52.6361 57.4046 52.8706 57.3988 53.1037 57.3908C53.1551 57.389 53.2055 57.3824 53.2548 57.3721C57.0845 57.2329 60.8151 56.5713 64.0523 55.4543C64.4204 55.3273 64.6623 54.9745 64.6482 54.5853C64.5395 51.6054 63.3248 49.0164 61.1354 47.0982C59.797 45.9257 58.0953 45.0234 56.2004 44.4598C58.0515 43.093 59.1458 41.0907 59.1458 39.0337V36.4835C59.1458 36.4818 59.1455 36.4801 59.1455 36.4785C59.1807 33.8991 58.4073 31.7311 56.9074 30.2084C55.5046 28.7843 53.5529 28 51.4119 28C47.7639 28 43.8867 30.4334 43.8867 34.9432V36.4859V39.034C43.8867 40.8814 44.7398 42.6479 46.2883 44.008C46.477 44.1738 46.6736 44.3301 46.8763 44.4774C44.9849 45.0415 43.2865 45.9433 41.9507 47.1141C39.7632 49.0314 38.5489 51.6192 38.4391 54.5976C38.4248 54.9868 38.6665 55.3397 39.0345 55.4669C42.3176 56.6013 46.1051 57.2667 49.9877 57.3911C49.9894 57.3911 49.991 57.3911 49.9927 57.3912C50.2046 57.3984 50.4179 57.4029 50.631 57.4068V61.3964H47.2123C46.7235 61.3964 46.3272 61.7927 46.3272 62.2816C46.3272 62.7704 46.7236 63.1667 47.2123 63.1667H50.631V65.6438H49.613C48.623 65.6438 47.8174 66.4506 47.8174 67.4422V71.2044C47.8174 72.1947 48.623 73.0002 49.613 73.0002H53.3747C54.3661 73.0002 55.1728 72.1947 55.1728 71.2044V67.4422C55.1728 66.4506 54.3661 65.6438 53.3747 65.6438H52.4014V63.1667H55.82C56.3089 63.1667 56.7052 62.7704 56.7052 62.2816C56.7052 61.7927 56.3089 61.3963 55.82 61.3963ZM62.834 53.9937C62.1696 54.2056 61.4841 54.3968 60.7826 54.5691V52.6594C60.7826 52.1705 60.3862 51.7742 59.8975 51.7742C59.4086 51.7742 59.0123 52.1705 59.0123 52.6594V54.9542C57.5105 55.2406 55.9503 55.4397 54.3619 55.5441L54.6849 54.6494C54.7388 54.4998 54.7516 54.3384 54.7216 54.1822L53.4766 47.69L54.1706 45.7942C58.2003 46.5129 62.327 48.9955 62.834 53.9937ZM45.657 34.9432C45.657 31.5471 48.5521 29.7703 51.412 29.7703C53.0752 29.7703 54.5789 30.3671 55.6463 31.4508C56.6446 32.4643 57.2266 33.8863 57.3514 35.5984H52.9119C50.7629 35.5984 49.157 34.9896 47.8576 33.6824C47.6881 33.5118 47.4608 33.4212 47.2296 33.4212C47.1145 33.4212 46.9983 33.4436 46.8878 33.4899C46.5556 33.629 46.3407 33.9558 46.3447 34.316C46.3495 34.7583 46.2522 35.0835 46.0552 35.2824C45.9443 35.3947 45.8021 35.4693 45.6569 35.5188V34.9432H45.657ZM48.4049 54.6495L48.7327 55.5578C47.0709 55.4496 45.4394 55.2377 43.8733 54.9295V52.652C43.8733 52.1632 43.477 51.7669 42.9882 51.7669C42.4993 51.7669 42.103 52.1632 42.103 52.652V54.5326C41.4719 54.3733 40.8541 54.1983 40.2535 54.0064C40.7627 49.0071 44.8934 46.5247 48.9226 45.8072L49.6131 47.6901L48.3682 54.1822C48.3383 54.3384 48.351 54.4998 48.4049 54.6495ZM49.915 44.0327C49.8197 43.9823 49.7157 43.9492 49.6078 43.936C47.3811 43.1668 45.657 41.1699 45.657 39.034V37.3346C46.1768 37.2512 46.8087 37.0383 47.3141 36.5274C47.4958 36.3436 47.647 36.137 47.7671 35.9083C49.1873 36.889 50.884 37.3687 52.9119 37.3687H57.3755V39.0341C57.3755 40.6149 56.4484 42.1777 54.8962 43.2143C54.444 43.5159 53.9586 43.7576 53.4598 43.9333C53.4552 43.934 53.4508 43.9353 53.4463 43.936C53.4342 43.9379 53.4225 43.9406 53.4105 43.9431C53.3945 43.9464 53.3787 43.9497 53.363 43.9539C53.3506 43.9572 53.3386 43.9611 53.3264 43.9649C53.3113 43.9696 53.2962 43.9743 53.2813 43.9798C53.2697 43.9841 53.2584 43.989 53.247 43.9938C53.232 44.0001 53.2169 44.0066 53.2022 44.0137C53.1963 44.0166 53.1903 44.0194 53.1844 44.0225C52.6334 44.1881 52.0708 44.2741 51.522 44.2701C50.9725 44.2662 50.4324 44.1821 49.915 44.0327ZM52.2072 46.0079L51.9426 46.7306H51.1467L50.8814 46.0072C51.0915 46.0268 51.3016 46.0387 51.5113 46.0401C51.5239 46.0402 51.5363 46.0402 51.5489 46.0402C51.7675 46.0402 51.9872 46.0285 52.2072 46.0079ZM53.3747 67.4139C53.3882 67.4139 53.4025 67.4283 53.4025 67.442V71.2042C53.4025 71.2141 53.3897 71.2297 53.3747 71.2297H49.613C49.6018 71.2297 49.5877 71.2154 49.5877 71.2042V67.442C49.5877 67.4268 49.6032 67.4139 49.613 67.4139H53.3747ZM51.548 55.6434C51.5451 55.6434 51.5422 55.6434 51.5392 55.6434C51.2421 55.645 50.9429 55.6428 50.6436 55.6373L50.1525 54.2769L51.2602 48.5008H51.8297L52.9374 54.2769L52.4463 55.6373C52.1462 55.6429 51.8459 55.6449 51.548 55.6434Z" fill="#00A650"/>
<path d="M59.3226 61.3962H59.3078C58.8188 61.3962 58.4226 61.7925 58.4226 62.2814C58.4226 62.7702 58.8189 63.1665 59.3078 63.1665H59.3226C59.8115 63.1665 60.2078 62.7702 60.2078 62.2814C60.2078 61.7925 59.8114 61.3962 59.3226 61.3962Z" fill="#00A650"/>
</g>
<defs>
<clipPath id="clip0_84:16880">
<rect width="45" height="45" fill="white" transform="translate(29 28)"/>
</clipPath>
</defs>
</svg>
