<svg width="70" height="70" viewBox="0 0 70 70" fill="none" xmlns="http://www.w3.org/2000/svg">
<circle cx="35" cy="35" r="35" fill="#E6FFF2"/>
<path d="M35 40C37.7614 40 40 37.7614 40 35C40 32.2386 37.7614 30 35 30C32.2386 30 30 32.2386 30 35C30 37.7614 32.2386 40 35 40Z" stroke="#00A650" stroke-width="2" stroke-miterlimit="10"/>
<path d="M40.5 23.5H29.5C26.1863 23.5 23.5 26.1863 23.5 29.5V40.5C23.5 43.8137 26.1863 46.5 29.5 46.5H40.5C43.8137 46.5 46.5 43.8137 46.5 40.5V29.5C46.5 26.1863 43.8137 23.5 40.5 23.5Z" stroke="#00A650" stroke-width="2" stroke-linecap="round" stroke-linejoin="round"/>
<path d="M41.5 30C42.3284 30 43 29.3284 43 28.5C43 27.6716 42.3284 27 41.5 27C40.6716 27 40 27.6716 40 28.5C40 29.3284 40.6716 30 41.5 30Z" fill="#00A650"/>
</svg>
